<?xml version="1.0" encoding="iso-8859-1"?>
<!-- Generator: Adobe Illustrator 19.0.0, SVG Export Plug-In . SVG Version: 6.00 Build 0)  -->
<svg version="1.1" id="Layer_1" xmlns="http://www.w3.org/2000/svg" xmlns:xlink="http://www.w3.org/1999/xlink" x="0px" y="0px"
	 viewBox="0 0 512.001 512.001" style="enable-background:new 0 0 512.001 512.001;" xml:space="preserve">
<g>
	<g>
		<path d="M413.717,0H98.285C77.899,0,61.314,16.586,61.314,36.971V475.03c0,20.385,16.585,36.971,36.971,36.971h315.43
			c20.385,0,36.971-16.586,36.971-36.971V36.971C450.687,16.586,434.102,0,413.717,0z M428.647,475.029
			c0,8.234-6.698,14.932-14.932,14.932H98.285c-8.233,0-14.932-6.698-14.932-14.932V36.971c0-8.234,6.699-14.932,14.932-14.932
			h315.43c8.234,0,14.932,6.698,14.932,14.932V475.029z"/>
	</g>
</g>
<g>
	<g>
		<path d="M393.671,48.829H124.413c-6.086,0-11.02,4.935-11.02,11.02v72.731c0,6.085,4.934,11.02,11.02,11.02h269.257
			c6.085,0,11.02-4.935,11.02-11.02V59.848C404.69,53.762,399.757,48.829,393.671,48.829z M382.651,121.559H135.433V70.868h247.218
			V121.559z"/>
	</g>
</g>
<g>
	<g>
		<path d="M203.592,322.228h-54.096c-23.388,0-42.415,19.028-42.415,42.415v54.096c0,23.388,19.028,42.415,42.415,42.415h54.096
			c23.388,0,42.415-19.028,42.415-42.415v-54.096C246.007,341.256,226.979,322.228,203.592,322.228z M223.967,418.74
			c0,11.235-9.141,20.376-20.376,20.376h-54.096c-11.235,0-20.376-9.141-20.376-20.376v-54.096c0-11.235,9.141-20.376,20.376-20.376
			h54.096c11.235,0,20.376,9.141,20.376,20.376V418.74z"/>
	</g>
</g>
<g>
	<g>
		<path d="M201.013,380.666h-13.444v-13.444c0-6.085-4.934-11.02-11.02-11.02c-6.086,0-11.02,4.935-11.02,11.02v13.444h-13.455
			c-6.086,0-11.02,4.935-11.02,11.02c0,6.085,4.934,11.02,11.02,11.02h13.455v13.455c0,6.085,4.934,11.02,11.02,11.02
			c6.086,0,11.02-4.935,11.02-11.02v-13.455h13.444c6.086,0,11.02-4.935,11.02-11.02
			C212.033,385.601,207.099,380.666,201.013,380.666z"/>
	</g>
</g>
<g>
	<g>
		<path d="M362.276,322.228h-54.097c-23.387,0-42.414,19.028-42.414,42.415v54.096c0,23.388,19.028,42.415,42.414,42.415h54.097
			c23.387,0,42.414-19.028,42.414-42.415v-54.096C404.69,341.256,385.664,322.228,362.276,322.228z M382.651,418.74
			c0,11.235-9.14,20.376-20.375,20.376h-54.097c-11.235,0-20.374-9.141-20.374-20.376v-54.096c0-11.235,9.14-20.376,20.374-20.376
			h54.097c11.235,0,20.375,9.141,20.375,20.376V418.74z"/>
	</g>
</g>
<g>
	<g>
		<path d="M359.697,397.196h-48.938c-6.085,0-11.02,4.935-11.02,11.02s4.935,11.02,11.02,11.02h48.938
			c6.085,0,11.02-4.935,11.02-11.02S365.783,397.196,359.697,397.196z"/>
	</g>
</g>
<g>
	<g>
		<path d="M359.697,364.137h-48.938c-6.085,0-11.02,4.935-11.02,11.02c0,6.085,4.935,11.02,11.02,11.02h48.938
			c6.085,0,11.02-4.935,11.02-11.02C370.716,369.071,365.783,364.137,359.697,364.137z"/>
	</g>
</g>
<g>
	<g>
		<path d="M203.592,163.543h-54.096c-23.388,0-42.415,19.028-42.415,42.415v54.096c0,23.388,19.028,42.415,42.415,42.415h54.096
			c23.388,0,42.415-19.028,42.415-42.415v-54.096C246.007,182.571,226.979,163.543,203.592,163.543z M223.967,260.055
			c0,11.235-9.141,20.376-20.376,20.376h-54.096c-11.235,0-20.376-9.141-20.376-20.376v-54.096c0-11.235,9.141-20.376,20.376-20.376
			h54.096c11.235,0,20.376,9.141,20.376,20.376V260.055z"/>
	</g>
</g>
<g>
	<g>
		<path d="M201.013,221.981h-48.939c-6.086,0-11.02,4.935-11.02,11.02s4.934,11.02,11.02,11.02h48.939
			c6.086,0,11.02-4.935,11.02-11.02S207.099,221.981,201.013,221.981z"/>
	</g>
</g>
<g>
	<g>
		<path d="M362.276,163.543h-54.097c-23.387,0-42.414,19.028-42.414,42.415v54.096c0,23.388,19.028,42.415,42.414,42.415h54.097
			c23.387,0,42.414-19.028,42.414-42.415v-54.096C404.69,182.571,385.664,163.543,362.276,163.543z M382.651,260.055
			c0,11.235-9.14,20.376-20.375,20.376h-54.097c-11.235,0-20.374-9.141-20.374-20.376v-54.096c0-11.235,9.14-20.376,20.374-20.376
			h54.097c11.235,0,20.375,9.141,20.375,20.376V260.055z"/>
	</g>
</g>
<g>
	<g>
		<path d="M350.81,233.009l12.271-12.272c4.305-4.308,4.303-11.284-0.001-15.586c-4.305-4.301-11.281-4.298-15.585,0.004
			l-12.266,12.267l-12.268-12.269c-4.304-4.302-11.28-4.302-15.585,0c-4.303,4.303-4.303,11.281,0,15.585l12.269,12.269
			l-12.267,12.267c-4.304,4.302-4.307,11.28-0.004,15.585c2.152,2.153,4.973,3.23,7.794,3.23c2.82,0,5.639-1.076,7.79-3.226
			l12.271-12.271l12.268,12.269c2.152,2.151,4.972,3.228,7.792,3.228c2.82,0,5.64-1.077,7.792-3.228
			c4.303-4.303,4.303-11.28,0-15.585L350.81,233.009z"/>
	</g>
</g>
<g>
</g>
<g>
</g>
<g>
</g>
<g>
</g>
<g>
</g>
<g>
</g>
<g>
</g>
<g>
</g>
<g>
</g>
<g>
</g>
<g>
</g>
<g>
</g>
<g>
</g>
<g>
</g>
<g>
</g>
</svg>
