<?xml version="1.0" encoding="utf-8"?>
<!-- Uploaded to SVGRepo https://www.svgrepo.com -->
<svg version="1.1" id="Layer_1" xmlns="http://www.w3.org/2000/svg" xmlns:xlink="http://www.w3.org/1999/xlink" x="0px" y="0px"
	 width="256px" height="190px" viewBox="0 0 256 190" enable-background="new 0 0 256 190" xml:space="preserve">
<path d="M48.12,27.903C48.12,13.564,59.592,2,74.023,2c14.339,0,25.903,11.564,25.903,25.903
	C99.834,42.335,88.27,53.806,74.023,53.806C59.684,53.806,48.12,42.242,48.12,27.903z M191,139h-47V97c0-20.461-17.881-37-38-37H43
	C20.912,60,1.99,79.14,2,98v77c-0.026,8.533,6.001,12.989,12,13c6.014,0.011,12-4.445,12-13v-75h8v88h78v-88h8l0.081,50.37
	c-0.053,8.729,5.342,12.446,10.919,12.63h60C207.363,163,207.363,139,191,139z M254,82.717l-18.528-18.403l0,0l0,0
	c-1.402-1.402-1.402-3.676,0-5.078c0.974-0.974,2.695-1.074,3.608-0.899c3.703,0.711,6.761,0.259,8.993-1.973
	c3.834-3.834,2.212-11.744-2.628-16.891c-5.751-6.116-13.229-6.761-17.063-2.926c-2.225,2.225-2.639,5.495-1.982,8.959
	c0.174,0.916,0.06,2.644-0.914,3.618c-1.402,1.402-3.676,1.402-5.078,0l0,0l0,0l-17.109-17.109L185.75,49.563
	c-1.402,1.402-1.402,3.676,0,5.078c0.966,0.966,2.91,1.025,3.713,0.737c0.004-0.001,5.063-1.665,8.876,2.147
	c3.834,3.834,2.893,10.993-2.103,15.988s-12.154,5.937-15.988,2.103c-2.397-2.397-2.383-5.789-1.857-9.791
	c0.131-0.998-0.259-2.031-1.027-2.798c-1.402-1.402-3.676-1.402-5.078,0L157,78.314l50.702,50.702l15.286-15.286
	c1.402-1.402,1.402-3.676,0-5.078c-0.993-0.993-2.37-1.156-3.681-0.888c-3.347,0.684-6.695,0.218-8.908-1.995
	c-3.834-3.834-2.893-10.993,2.103-15.988s12.154-5.937,15.988-2.103c3.845,3.845,1.935,9.237,1.935,9.237
	c-0.271,1.168,0.039,2.442,0.949,3.352c1.402,1.402,3.887,1.206,5.491-0.413L254,82.717z"/>
</svg>
